<mxfile host="app.diagrams.net" modified="2021-05-03T19:34:42.229Z" agent="5.0 (Macintosh; Intel Mac OS X 10_15_7) AppleWebKit/537.36 (KHTML, like Gecko) Chrome/90.0.4430.93 Safari/537.36" etag="1tVWD-wKID51FGn0O1Ti" version="14.6.9" type="github">
  <diagram name="Page-1" id="74e2e168-ea6b-b213-b513-2b3c1d86103e">
    <mxGraphModel dx="946" dy="591" grid="1" gridSize="10" guides="1" tooltips="1" connect="1" arrows="1" fold="1" page="1" pageScale="1" pageWidth="1100" pageHeight="850" background="#ffffff" math="0" shadow="0">
      <root>
        <mxCell id="0" />
        <mxCell id="1" parent="0" />
        <mxCell id="77e6c97f196da883-1" value="&lt;font style=&quot;font-size: 14px&quot;&gt;SOP for Large Scale Community Impacting Data Models (WIP)&lt;/font&gt;" style="swimlane;html=1;childLayout=stackLayout;startSize=20;rounded=0;shadow=0;labelBackgroundColor=none;strokeWidth=1;fontFamily=Verdana;fontSize=8;align=center;" parent="1" vertex="1">
          <mxGeometry x="20" y="120" width="1050" height="930" as="geometry" />
        </mxCell>
        <mxCell id="bnUMh3zTZpiLuaNcMbEq-56" style="edgeStyle=orthogonalEdgeStyle;rounded=0;orthogonalLoop=1;jettySize=auto;html=1;exitX=1;exitY=1;exitDx=0;exitDy=0;entryX=0;entryY=1;entryDx=0;entryDy=0;fontSize=11;strokeColor=#3333FF;" edge="1" parent="77e6c97f196da883-1" source="77e6c97f196da883-2" target="77e6c97f196da883-3">
          <mxGeometry relative="1" as="geometry" />
        </mxCell>
        <mxCell id="77e6c97f196da883-2" value="Requirement Phase" style="swimlane;html=1;startSize=20;" parent="77e6c97f196da883-1" vertex="1">
          <mxGeometry y="20" width="220" height="910" as="geometry" />
        </mxCell>
        <mxCell id="bnUMh3zTZpiLuaNcMbEq-21" style="edgeStyle=orthogonalEdgeStyle;rounded=0;orthogonalLoop=1;jettySize=auto;html=1;exitX=0.5;exitY=1;exitDx=0;exitDy=0;entryX=0.5;entryY=0;entryDx=0;entryDy=0;" edge="1" parent="77e6c97f196da883-2" source="77e6c97f196da883-8" target="bnUMh3zTZpiLuaNcMbEq-1">
          <mxGeometry relative="1" as="geometry" />
        </mxCell>
        <mxCell id="77e6c97f196da883-8" value="&lt;b style=&quot;font-size: 10px;&quot;&gt;(1)&lt;/b&gt; &lt;b style=&quot;font-size: 10px;&quot;&gt;Understand the Use Case&lt;br style=&quot;font-size: 10px;&quot;&gt;&lt;div style=&quot;text-align: justify; font-size: 10px;&quot;&gt;&lt;b style=&quot;font-size: 10px;&quot;&gt;Input&lt;/b&gt;&lt;span style=&quot;font-weight: normal; font-size: 10px;&quot;&gt;: Key purposes of the use case&lt;/span&gt;&lt;/div&gt;&lt;/b&gt;&lt;b style=&quot;font-size: 10px;&quot;&gt;&lt;div style=&quot;text-align: justify; font-size: 10px;&quot;&gt;&lt;b style=&quot;font-size: 10px;&quot;&gt;Process&lt;/b&gt;&lt;span style=&quot;font-weight: normal; font-size: 10px;&quot;&gt;: Identify the specific problems to solve and relevance of these problems&lt;/span&gt;&lt;/div&gt;&lt;/b&gt;&lt;b style=&quot;font-size: 10px;&quot;&gt;&lt;div style=&quot;text-align: justify; font-size: 10px;&quot;&gt;&lt;b style=&quot;font-size: 10px;&quot;&gt;Output&lt;/b&gt;&lt;span style=&quot;font-weight: normal; font-size: 10px;&quot;&gt; : Clear identification of use case and problems to solve for, including usage patterns&lt;/span&gt;&lt;/div&gt;&lt;/b&gt;&lt;b style=&quot;font-size: 10px;&quot;&gt;&lt;div style=&quot;text-align: justify; font-size: 10px;&quot;&gt;&lt;b style=&quot;font-size: 10px;&quot;&gt;Participants&lt;/b&gt;&lt;span style=&quot;font-weight: normal; font-size: 10px;&quot;&gt;: Key leaders/ Leads related to use case&lt;/span&gt;&lt;/div&gt;&lt;/b&gt;" style="rounded=1;whiteSpace=wrap;html=1;shadow=0;labelBackgroundColor=none;strokeWidth=1;fontFamily=Verdana;fontSize=10;align=center;" parent="77e6c97f196da883-2" vertex="1">
          <mxGeometry x="10" y="35" width="200" height="135" as="geometry" />
        </mxCell>
        <mxCell id="bnUMh3zTZpiLuaNcMbEq-22" style="edgeStyle=orthogonalEdgeStyle;rounded=0;orthogonalLoop=1;jettySize=auto;html=1;exitX=0.5;exitY=1;exitDx=0;exitDy=0;entryX=0.5;entryY=0;entryDx=0;entryDy=0;" edge="1" parent="77e6c97f196da883-2" source="bnUMh3zTZpiLuaNcMbEq-1" target="bnUMh3zTZpiLuaNcMbEq-4">
          <mxGeometry relative="1" as="geometry" />
        </mxCell>
        <mxCell id="bnUMh3zTZpiLuaNcMbEq-1" value="&lt;b style=&quot;font-size: 11px;&quot;&gt;(2)&lt;/b&gt; &lt;b style=&quot;font-size: 11px;&quot;&gt;Define Detailed Use Case&lt;br style=&quot;font-size: 11px;&quot;&gt;&lt;div style=&quot;text-align: justify; font-size: 11px;&quot;&gt;&lt;b style=&quot;font-size: 11px;&quot;&gt;Input&lt;/b&gt;&lt;span style=&quot;font-weight: normal; font-size: 11px;&quot;&gt;: Key use case details&lt;/span&gt;&lt;/div&gt;&lt;/b&gt;&lt;b style=&quot;font-size: 11px;&quot;&gt;&lt;div style=&quot;text-align: justify; font-size: 11px;&quot;&gt;&lt;b style=&quot;font-size: 11px;&quot;&gt;Process&lt;/b&gt;&lt;span style=&quot;font-weight: normal; font-size: 11px;&quot;&gt;: Articulate problem statement, assumptions, objectives, expectations&amp;nbsp;&lt;/span&gt;&lt;/div&gt;&lt;/b&gt;&lt;b style=&quot;font-size: 11px;&quot;&gt;&lt;div style=&quot;text-align: justify; font-size: 11px;&quot;&gt;&lt;b style=&quot;font-size: 11px;&quot;&gt;Output&lt;/b&gt;&lt;span style=&quot;font-weight: normal; font-size: 11px;&quot;&gt; : Detailed breakdown of the use case (use case, objectives, data approach)&lt;/span&gt;&lt;/div&gt;&lt;/b&gt;" style="rounded=1;whiteSpace=wrap;html=1;shadow=0;labelBackgroundColor=none;strokeWidth=1;fontFamily=Verdana;fontSize=11;align=center;" vertex="1" parent="77e6c97f196da883-2">
          <mxGeometry x="10" y="180" width="200" height="120" as="geometry" />
        </mxCell>
        <mxCell id="bnUMh3zTZpiLuaNcMbEq-23" style="edgeStyle=orthogonalEdgeStyle;rounded=0;orthogonalLoop=1;jettySize=auto;html=1;entryX=0.5;entryY=0;entryDx=0;entryDy=0;" edge="1" parent="77e6c97f196da883-2" source="bnUMh3zTZpiLuaNcMbEq-4" target="bnUMh3zTZpiLuaNcMbEq-5">
          <mxGeometry relative="1" as="geometry" />
        </mxCell>
        <mxCell id="bnUMh3zTZpiLuaNcMbEq-4" value="&lt;b style=&quot;font-size: 11px;&quot;&gt;(3)&lt;/b&gt;&amp;nbsp;&lt;b style=&quot;font-size: 11px;&quot;&gt;Detailed Data Analysis&lt;br style=&quot;font-size: 11px;&quot;&gt;&lt;div style=&quot;text-align: justify; font-size: 11px;&quot;&gt;&lt;b style=&quot;font-size: 11px;&quot;&gt;Input&lt;/b&gt;&lt;span style=&quot;font-weight: normal; font-size: 11px;&quot;&gt;: Detailed use case detail&lt;/span&gt;&lt;/div&gt;&lt;/b&gt;&lt;div style=&quot;text-align: justify; font-size: 11px;&quot;&gt;&lt;b style=&quot;font-weight: bold; font-size: 11px;&quot;&gt;Process&lt;/b&gt;: Identify all data sources ([un]structured , meta data, data quality,&amp;nbsp; data availability&amp;nbsp;, refresh cycles&lt;/div&gt;&lt;b style=&quot;font-size: 11px;&quot;&gt;&lt;div style=&quot;text-align: justify; font-size: 11px;&quot;&gt;&lt;b style=&quot;font-size: 11px;&quot;&gt;Output&lt;/b&gt;&lt;span style=&quot;font-weight: normal; font-size: 11px;&quot;&gt; : Detailed data sources, data quality, availability and integration approach report&lt;/span&gt;&lt;/div&gt;&lt;/b&gt;" style="rounded=1;whiteSpace=wrap;html=1;shadow=0;labelBackgroundColor=none;strokeWidth=1;fontFamily=Verdana;fontSize=11;align=center;" vertex="1" parent="77e6c97f196da883-2">
          <mxGeometry x="10" y="320" width="200" height="135" as="geometry" />
        </mxCell>
        <mxCell id="bnUMh3zTZpiLuaNcMbEq-24" style="edgeStyle=orthogonalEdgeStyle;rounded=0;orthogonalLoop=1;jettySize=auto;html=1;exitX=0.5;exitY=1;exitDx=0;exitDy=0;entryX=0.5;entryY=0;entryDx=0;entryDy=0;" edge="1" parent="77e6c97f196da883-2" source="bnUMh3zTZpiLuaNcMbEq-5" target="bnUMh3zTZpiLuaNcMbEq-19">
          <mxGeometry relative="1" as="geometry" />
        </mxCell>
        <mxCell id="bnUMh3zTZpiLuaNcMbEq-5" value="&lt;b style=&quot;font-size: 11px;&quot;&gt;(D1) Decision&lt;/b&gt;&lt;br style=&quot;font-size: 11px;&quot;&gt;Data Analysis and Problem Statement are in alignment" style="rhombus;whiteSpace=wrap;html=1;rounded=0;shadow=0;labelBackgroundColor=none;strokeWidth=1;fontFamily=Verdana;fontSize=11;align=center;" vertex="1" parent="77e6c97f196da883-2">
          <mxGeometry x="35" y="500" width="150" height="110" as="geometry" />
        </mxCell>
        <mxCell id="bnUMh3zTZpiLuaNcMbEq-19" value="&lt;b style=&quot;font-size: 11px;&quot;&gt;(4)&lt;/b&gt;&amp;nbsp;&lt;b style=&quot;font-size: 11px;&quot;&gt;Requirements&amp;nbsp;&lt;br style=&quot;font-size: 11px;&quot;&gt;&lt;div style=&quot;text-align: justify; font-size: 11px;&quot;&gt;&lt;b style=&quot;font-size: 11px;&quot;&gt;Input&lt;/b&gt;&lt;span style=&quot;font-weight: normal; font-size: 11px;&quot;&gt;: Detailed use case detail, Data Analysis&lt;/span&gt;&lt;/div&gt;&lt;/b&gt;&lt;div style=&quot;text-align: justify; font-size: 11px;&quot;&gt;&lt;b style=&quot;font-weight: bold; font-size: 11px;&quot;&gt;Process&lt;/b&gt;: Fully integrated requirements with data granularity to address the use case, assumptions, constraints,&lt;/div&gt;&lt;b style=&quot;font-size: 11px;&quot;&gt;&lt;div style=&quot;text-align: justify; font-size: 11px;&quot;&gt;&lt;b style=&quot;font-size: 11px;&quot;&gt;Output&lt;/b&gt;&lt;span style=&quot;font-weight: normal; font-size: 11px;&quot;&gt; : Detailed requirements documentation with all layers of use case, data elements and integration expectations&lt;/span&gt;&lt;/div&gt;&lt;/b&gt;" style="rounded=1;whiteSpace=wrap;html=1;shadow=0;labelBackgroundColor=none;strokeWidth=1;fontFamily=Verdana;fontSize=11;align=center;" vertex="1" parent="77e6c97f196da883-2">
          <mxGeometry x="10" y="660" width="200" height="190" as="geometry" />
        </mxCell>
        <mxCell id="77e6c97f196da883-3" value="Design" style="swimlane;html=1;startSize=20;" parent="77e6c97f196da883-1" vertex="1">
          <mxGeometry x="220" y="20" width="200" height="910" as="geometry" />
        </mxCell>
        <mxCell id="bnUMh3zTZpiLuaNcMbEq-51" style="edgeStyle=orthogonalEdgeStyle;rounded=0;orthogonalLoop=1;jettySize=auto;html=1;exitX=0.5;exitY=1;exitDx=0;exitDy=0;entryX=0.5;entryY=0;entryDx=0;entryDy=0;strokeColor=#3333FF;" edge="1" parent="77e6c97f196da883-3" source="bnUMh3zTZpiLuaNcMbEq-20" target="bnUMh3zTZpiLuaNcMbEq-45">
          <mxGeometry relative="1" as="geometry" />
        </mxCell>
        <mxCell id="bnUMh3zTZpiLuaNcMbEq-20" value="&lt;b style=&quot;font-size: 11px;&quot;&gt;(5)&lt;/b&gt;&amp;nbsp;&lt;b style=&quot;font-size: 11px;&quot;&gt;Data Architecture Specification&amp;nbsp;&lt;br style=&quot;font-size: 11px;&quot;&gt;&lt;div style=&quot;text-align: justify; font-size: 11px;&quot;&gt;&lt;b style=&quot;font-size: 11px;&quot;&gt;Input&lt;/b&gt;&lt;span style=&quot;font-weight: normal; font-size: 11px;&quot;&gt;: Detailed data analysis, Requirements Specifications&lt;/span&gt;&lt;/div&gt;&lt;/b&gt;&lt;div style=&quot;text-align: justify; font-size: 11px;&quot;&gt;&lt;b style=&quot;font-weight: bold; font-size: 11px;&quot;&gt;Process&lt;/b&gt;: Data model architecture along with the integration architecture&lt;/div&gt;&lt;b style=&quot;font-size: 11px;&quot;&gt;&lt;div style=&quot;text-align: justify; font-size: 11px;&quot;&gt;&lt;b style=&quot;font-size: 11px;&quot;&gt;Output&lt;/b&gt;&lt;span style=&quot;font-weight: normal; font-size: 11px;&quot;&gt; : Detailed data models along with granular integration architecture&lt;/span&gt;&lt;/div&gt;&lt;/b&gt;" style="rounded=1;whiteSpace=wrap;html=1;shadow=0;labelBackgroundColor=none;strokeWidth=1;fontFamily=Verdana;fontSize=11;align=center;" vertex="1" parent="77e6c97f196da883-3">
          <mxGeometry x="10" y="30" width="170" height="150" as="geometry" />
        </mxCell>
        <mxCell id="bnUMh3zTZpiLuaNcMbEq-52" style="edgeStyle=orthogonalEdgeStyle;rounded=0;orthogonalLoop=1;jettySize=auto;html=1;exitX=0.5;exitY=1;exitDx=0;exitDy=0;entryX=0.5;entryY=0;entryDx=0;entryDy=0;strokeColor=#3333FF;" edge="1" parent="77e6c97f196da883-3" source="bnUMh3zTZpiLuaNcMbEq-45" target="bnUMh3zTZpiLuaNcMbEq-46">
          <mxGeometry relative="1" as="geometry" />
        </mxCell>
        <mxCell id="bnUMh3zTZpiLuaNcMbEq-45" value="&lt;b style=&quot;font-size: 11px;&quot;&gt;(6)&lt;/b&gt;&amp;nbsp;&lt;b style=&quot;font-size: 11px;&quot;&gt;Modeling&amp;nbsp;&lt;br style=&quot;font-size: 11px;&quot;&gt;&lt;div style=&quot;text-align: justify; font-size: 11px;&quot;&gt;&lt;b style=&quot;font-size: 11px;&quot;&gt;Input&lt;/b&gt;&lt;span style=&quot;font-weight: normal; font-size: 11px;&quot;&gt;: Requirements Details and Data Architecture Specifications (with integration)&lt;/span&gt;&lt;/div&gt;&lt;/b&gt;&lt;div style=&quot;text-align: justify; font-size: 11px;&quot;&gt;&lt;b style=&quot;font-weight: bold; font-size: 11px;&quot;&gt;Process&lt;/b&gt;: Detailed data analysis, model process, identify algorithms, test algorithms, Review models and compare results&lt;/div&gt;&lt;b style=&quot;font-size: 11px;&quot;&gt;&lt;div style=&quot;text-align: justify; font-size: 11px;&quot;&gt;&lt;b style=&quot;font-size: 11px;&quot;&gt;Output&lt;/b&gt;&lt;span style=&quot;font-weight: normal; font-size: 11px;&quot;&gt; : Detailed approach to modelling algorithms with detailed data (raw and derived) specifications.&lt;/span&gt;&lt;/div&gt;&lt;/b&gt;" style="rounded=1;whiteSpace=wrap;html=1;shadow=0;labelBackgroundColor=none;strokeWidth=1;fontFamily=Verdana;fontSize=11;align=center;" vertex="1" parent="77e6c97f196da883-3">
          <mxGeometry x="10" y="200" width="170" height="190" as="geometry" />
        </mxCell>
        <mxCell id="bnUMh3zTZpiLuaNcMbEq-53" style="edgeStyle=orthogonalEdgeStyle;rounded=0;orthogonalLoop=1;jettySize=auto;html=1;exitX=0.5;exitY=1;exitDx=0;exitDy=0;entryX=0.5;entryY=0;entryDx=0;entryDy=0;strokeColor=#3333FF;" edge="1" parent="77e6c97f196da883-3" source="bnUMh3zTZpiLuaNcMbEq-46" target="bnUMh3zTZpiLuaNcMbEq-47">
          <mxGeometry relative="1" as="geometry" />
        </mxCell>
        <mxCell id="bnUMh3zTZpiLuaNcMbEq-46" value="&lt;b style=&quot;font-size: 11px;&quot;&gt;(7)&lt;/b&gt;&amp;nbsp;&lt;b style=&quot;font-size: 11px;&quot;&gt;Baseline&amp;nbsp;Model&amp;nbsp;&lt;br style=&quot;font-size: 11px;&quot;&gt;&lt;div style=&quot;text-align: justify; font-size: 11px;&quot;&gt;&lt;b style=&quot;font-size: 11px;&quot;&gt;Input&lt;/b&gt;&lt;span style=&quot;font-weight: normal; font-size: 11px;&quot;&gt;: Model approach, Requirements&lt;/span&gt;&lt;/div&gt;&lt;/b&gt;&lt;div style=&quot;text-align: justify; font-size: 11px;&quot;&gt;&lt;b style=&quot;font-weight: bold; font-size: 11px;&quot;&gt;Process&lt;/b&gt;: Create the baseline model with all aspects basis the model approach meeting the expected metrics along with detailed testing cycles.&lt;/div&gt;&lt;b style=&quot;font-size: 11px;&quot;&gt;&lt;div style=&quot;text-align: justify; font-size: 11px;&quot;&gt;&lt;b style=&quot;font-size: 11px;&quot;&gt;Output&lt;/b&gt;&lt;span style=&quot;font-weight: normal; font-size: 11px;&quot;&gt; : Baseline model deployed with data (pre-process, compute and post process) fully integrated.&lt;/span&gt;&lt;/div&gt;&lt;/b&gt;" style="rounded=1;whiteSpace=wrap;html=1;shadow=0;labelBackgroundColor=none;strokeWidth=1;fontFamily=Verdana;fontSize=11;align=center;" vertex="1" parent="77e6c97f196da883-3">
          <mxGeometry x="10" y="430" width="170" height="180" as="geometry" />
        </mxCell>
        <mxCell id="bnUMh3zTZpiLuaNcMbEq-47" value="&lt;b style=&quot;font-size: 11px;&quot;&gt;(8)&lt;/b&gt;&amp;nbsp;&lt;b style=&quot;font-size: 11px;&quot;&gt;Integrated IT Architecture&amp;nbsp;&lt;br style=&quot;font-size: 11px;&quot;&gt;&lt;div style=&quot;text-align: justify; font-size: 11px;&quot;&gt;&lt;b style=&quot;font-size: 11px;&quot;&gt;Input&lt;/b&gt;&lt;span style=&quot;font-weight: normal; font-size: 11px;&quot;&gt;: Requirements, Baseline Model Deployed&lt;/span&gt;&lt;/div&gt;&lt;/b&gt;&lt;div style=&quot;text-align: justify; font-size: 11px;&quot;&gt;&lt;b style=&quot;font-weight: bold; font-size: 11px;&quot;&gt;Process&lt;/b&gt;: Create the detailed IT architecture reference architecture for implementation. This includes the model integration specifications along with Portal, app, data integration, model integration, pre and post process data pipelines&lt;/div&gt;&lt;div style=&quot;text-align: justify; font-size: 11px;&quot;&gt;&lt;b style=&quot;font-weight: bold; font-size: 11px;&quot;&gt;Output&lt;/b&gt; : Detailed and implementation&amp;nbsp;depth IT Architecture&lt;/div&gt;" style="rounded=1;whiteSpace=wrap;html=1;shadow=0;labelBackgroundColor=none;strokeWidth=1;fontFamily=Verdana;fontSize=11;align=center;" vertex="1" parent="77e6c97f196da883-3">
          <mxGeometry x="10" y="650" width="170" height="230" as="geometry" />
        </mxCell>
        <mxCell id="bnUMh3zTZpiLuaNcMbEq-54" style="edgeStyle=orthogonalEdgeStyle;rounded=0;orthogonalLoop=1;jettySize=auto;html=1;entryX=0;entryY=0.5;entryDx=0;entryDy=0;strokeColor=#3333FF;" edge="1" parent="77e6c97f196da883-1" source="bnUMh3zTZpiLuaNcMbEq-47" target="bnUMh3zTZpiLuaNcMbEq-48">
          <mxGeometry relative="1" as="geometry" />
        </mxCell>
        <mxCell id="77e6c97f196da883-4" value="Implementation" style="swimlane;html=1;startSize=20;" parent="77e6c97f196da883-1" vertex="1">
          <mxGeometry x="420" y="20" width="280" height="910" as="geometry" />
        </mxCell>
        <mxCell id="bnUMh3zTZpiLuaNcMbEq-55" style="edgeStyle=orthogonalEdgeStyle;rounded=0;orthogonalLoop=1;jettySize=auto;html=1;exitX=0.5;exitY=1;exitDx=0;exitDy=0;entryX=0.5;entryY=0;entryDx=0;entryDy=0;strokeColor=#3333FF;" edge="1" parent="77e6c97f196da883-4" source="bnUMh3zTZpiLuaNcMbEq-48" target="bnUMh3zTZpiLuaNcMbEq-49">
          <mxGeometry relative="1" as="geometry" />
        </mxCell>
        <mxCell id="bnUMh3zTZpiLuaNcMbEq-48" value="&lt;b style=&quot;font-size: 11px;&quot;&gt;(9)&lt;/b&gt;&amp;nbsp;&lt;b style=&quot;font-size: 11px;&quot;&gt;IT Development &amp;amp; Implementation&lt;/b&gt;&amp;nbsp;&lt;b style=&quot;font-size: 11px;&quot;&gt;&amp;nbsp;&lt;br style=&quot;font-size: 11px;&quot;&gt;&lt;div style=&quot;text-align: justify; font-size: 11px;&quot;&gt;&lt;b style=&quot;font-size: 11px;&quot;&gt;Input&lt;/b&gt;&lt;span style=&quot;font-weight: normal; font-size: 11px;&quot;&gt;: IT Architecture, Requirements, Data Model&lt;/span&gt;&lt;/div&gt;&lt;/b&gt;&lt;div style=&quot;text-align: justify; font-size: 11px;&quot;&gt;&lt;b style=&quot;font-weight: bold; font-size: 11px;&quot;&gt;Process&lt;/b&gt;: Agile model development of portal, app, model pipelines. Weekly iterative deliveries. Programme Management Office (PMO) run approach&lt;/div&gt;&lt;div style=&quot;text-align: justify; font-size: 11px;&quot;&gt;&lt;b style=&quot;font-weight: bold; font-size: 11px;&quot;&gt;Output&lt;/b&gt; : Development Iterations, User Acceptance Testing, Performance Testing, Production Delivery&lt;/div&gt;" style="rounded=1;whiteSpace=wrap;html=1;shadow=0;labelBackgroundColor=none;strokeWidth=1;fontFamily=Verdana;fontSize=11;align=center;" vertex="1" parent="77e6c97f196da883-4">
          <mxGeometry x="40" y="30" width="220" height="180" as="geometry" />
        </mxCell>
        <mxCell id="bnUMh3zTZpiLuaNcMbEq-49" value="&lt;b style=&quot;font-size: 11px;&quot;&gt;(10)&amp;nbsp;Use Case Live &amp;amp; Monitor&amp;nbsp;&lt;/b&gt;&amp;nbsp;&lt;br style=&quot;font-size: 11px;&quot;&gt;&lt;div style=&quot;text-align: justify; font-size: 11px;&quot;&gt;I&lt;b style=&quot;font-weight: bold; font-size: 11px;&quot;&gt;nput&lt;/b&gt;&lt;span style=&quot;font-weight: normal; font-size: 11px;&quot;&gt;: Integrated Capability Builds&lt;/span&gt;&lt;/div&gt;&lt;div style=&quot;text-align: justify; font-size: 11px;&quot;&gt;&lt;b style=&quot;font-weight: bold; font-size: 11px;&quot;&gt;Process&lt;/b&gt;: Programme Management Office (PMO) run approach for&amp;nbsp;&lt;/div&gt;&lt;div style=&quot;text-align: justify; font-size: 11px;&quot;&gt;&lt;b style=&quot;font-weight: bold; font-size: 11px;&quot;&gt;Output&lt;/b&gt; : Alpha, Beta and Stable versions of capability build&lt;/div&gt;" style="rounded=1;whiteSpace=wrap;html=1;shadow=0;labelBackgroundColor=none;strokeWidth=1;fontFamily=Verdana;fontSize=11;align=center;" vertex="1" parent="77e6c97f196da883-4">
          <mxGeometry x="45" y="270" width="210" height="100" as="geometry" />
        </mxCell>
      </root>
    </mxGraphModel>
  </diagram>
</mxfile>
